<svg viewBox="0 0 100 100" xmlns="http://www.w3.org/2000/svg">
  <rect width="100" height="100" rx="16" fill="#ffffff"/>
  <!-- leaf: lime outer border -->
  <path d="M50 10 C80 14 91 34 90 55 C89 79 69 91 48 90 C20 87 9 66 10 45 C11 21 30 13 50 10 Z" fill="#a6ce39"/>
  <!-- dark green leaf body -->
  <path d="M50 20 C74 23 82 39 81 56 C80 75 63 83 47 82 C25 79 18 62 19 46 C20 27 34 22 50 20 Z" fill="#3f6b1f"/>
  <!-- midrib -->
  <path d="M31 74 Q51 52 71 30" stroke="#a6ce39" stroke-width="3" fill="none" opacity="0.45" stroke-linecap="round"/>
  <text x="50" y="61" font-family="'Trebuchet MS', Verdana, sans-serif" font-size="30" font-weight="700" fill="#f4f2e4" text-anchor="middle">klas</text>
</svg>
